<svg xmlns="http://www.w3.org/2000/svg" viewBox="0 0 580.97 141.55"><defs><style>.cls-1{fill:#fff;}.cls-2{fill:#fc361d;}</style></defs><title>Asset 1</title><g id="Layer_2" data-name="Layer 2"><g id="Layer_1-2" data-name="Layer 1"><path class="cls-1" d="M403.13,58.91c0,3.22,1.17,9.14,8.28,9.14h2.76V80.93h-6.41c-12.31,0-19.34-1.8-19.34-14.72V34.94H382.9V22.08h5.52V7.36h14.71V22.08h11V34.94h-11Z"/><path class="cls-1" d="M429,16.55A8.28,8.28,0,0,0,429,0a8.34,8.34,0,0,0-8.38,8.22A8.36,8.36,0,0,0,429,16.55Z"/><polygon class="cls-1" points="436.24 68.05 436.24 22.07 421.52 22.07 421.52 80.92 441.75 80.92 441.75 68.05 436.24 68.05"/><path class="cls-1" d="M30.37,68.05A15.63,15.63,0,0,1,18.84,62.8a17.11,17.11,0,0,1-4.12-11.35,16.5,16.5,0,0,1,4.2-11,16.06,16.06,0,0,1,11.49-5.48c4.58,0,8.58,2.5,11.36,5.65L52,30.74a31.13,31.13,0,0,0-21.59-8.67A30.78,30.78,0,0,0,8.95,30.69,28.71,28.71,0,0,0,9,72.35a30.77,30.77,0,0,0,21.42,8.58A31.11,31.11,0,0,0,51.95,72.3L41.77,62.44A15.43,15.43,0,0,1,30.37,68.05Z"/><path class="cls-1" d="M271.75,22.07a33,33,0,0,0-16.1,4.13V7.36H235.42V20.23h5.52V80.93h14.71V76.68a33.11,33.11,0,0,0,16.1,4.14c16.84,0,30.8-13.13,30.8-29.44C302.55,35.28,288.59,22.07,271.75,22.07Zm0,46c-9.16,0-16.08-7-16.08-16.7a16.16,16.16,0,0,1,16.08-16.49c9.05,0,16.08,7.13,16.08,16.49S280.8,68.08,271.75,68.08Z"/><path class="cls-1" d="M90.35,22.07c17.14,0,31,13.18,31,29.43s-13.9,29.43-31,29.43-31-13.18-31-29.43S73.21,22.07,90.35,22.07ZM106.67,51.5A16.32,16.32,0,1,0,90.35,68.05,16.44,16.44,0,0,0,106.67,51.5Z"/><path class="cls-1" d="M375.54,68.05V80.93H355.31v-4a32.1,32.1,0,0,1-15.44,3.94c-16.48,0-29.95-13.13-29.95-29.43,0-16.1,13.47-29.32,29.95-29.32a32,32,0,0,1,15.44,4V22.08H370v46ZM355.31,51.5c0-9.14-6.87-16.55-15.34-16.55s-15.33,7.41-15.33,16.55S331.5,68.05,340,68.05,355.31,60.64,355.31,51.5Z"/><path class="cls-1" d="M581,68.05V80.93H560.74v-4a32.1,32.1,0,0,1-15.44,3.94c-16.48,0-29.95-13.13-29.95-29.43,0-16.1,13.47-29.32,29.95-29.32a32,32,0,0,1,15.44,4V22.08h14.72v46ZM560.74,51.5c0-9.14-6.87-16.55-15.34-16.55s-15.33,7.41-15.33,16.55,6.86,16.55,15.33,16.55S560.74,60.64,560.74,51.5Z"/><path class="cls-1" d="M222.54,68.05V47.82a25.74,25.74,0,0,0-43-19.09,22.07,22.07,0,0,0-30.55-1V22.07H128.74V34.94h5.52v46H149V46.05a11,11,0,0,1,22.07,0V80.93h14.71V46.05a11,11,0,0,1,22.07,0V80.93h20.23V68.05Z"/><g id="_Group_" data-name="&lt;Group&gt;"><polygon class="cls-2" points="507.99 44.14 507.99 58.85 452.79 82.99 452.79 82.99 449.11 69.89 486.81 51.5 449.11 33.11 452.79 20 507.99 44.14"/></g><path class="cls-1" d="M195.48,119.91h-2.53l-.55-2.12a4.6,4.6,0,0,0-1.55-.89,6.21,6.21,0,0,0-2.11-.34,4,4,0,0,0-2.67.75,2.32,2.32,0,0,0-.87,1.81,2,2,0,0,0,.77,1.65,8.19,8.19,0,0,0,3.13,1.08,13.83,13.83,0,0,1,5.21,2,3.88,3.88,0,0,1,1.71,3.31,4.51,4.51,0,0,1-2,3.81,8.61,8.61,0,0,1-5.2,1.45,14.09,14.09,0,0,1-3.78-.47,10.26,10.26,0,0,1-3-1.35l0-4h2.53l.63,2.37a3.58,3.58,0,0,0,1.58.74,9.11,9.11,0,0,0,2,.23,4.93,4.93,0,0,0,2.81-.69,2.12,2.12,0,0,0,1-1.82,2.15,2.15,0,0,0-.85-1.75,8.16,8.16,0,0,0-3.2-1.19,13.8,13.8,0,0,1-5.07-1.91,3.8,3.8,0,0,1-1.71-3.27,4.55,4.55,0,0,1,1.92-3.68,7.82,7.82,0,0,1,5-1.52,12.64,12.64,0,0,1,3.78.52,8,8,0,0,1,2.78,1.45Z"/><path class="cls-1" d="M428.46,119.91h-2.53l-.55-2.12a4.6,4.6,0,0,0-1.55-.89,6.21,6.21,0,0,0-2.11-.34,4,4,0,0,0-2.67.75,2.32,2.32,0,0,0-.87,1.81,2,2,0,0,0,.77,1.65,8.19,8.19,0,0,0,3.13,1.08,13.83,13.83,0,0,1,5.21,2,3.88,3.88,0,0,1,1.71,3.31,4.51,4.51,0,0,1-2,3.81,8.61,8.61,0,0,1-5.2,1.45,14.09,14.09,0,0,1-3.78-.47,10.26,10.26,0,0,1-3-1.35l0-4h2.53l.63,2.37a3.58,3.58,0,0,0,1.58.74,9.11,9.11,0,0,0,2,.23,4.93,4.93,0,0,0,2.81-.69,2.12,2.12,0,0,0,1-1.82,2.15,2.15,0,0,0-.85-1.75,8.16,8.16,0,0,0-3.2-1.19,13.8,13.8,0,0,1-5.07-1.91,3.8,3.8,0,0,1-1.71-3.27,4.55,4.55,0,0,1,1.92-3.68,7.82,7.82,0,0,1,5-1.52,12.64,12.64,0,0,1,3.78.52,8,8,0,0,1,2.78,1.45Z"/><path class="cls-1" d="M226.32,116.56V114h2.89v-2.84a6.53,6.53,0,0,1,1.55-4.65,5.64,5.64,0,0,1,4.31-1.64,7.31,7.31,0,0,1,1.17.1q.59.1,1.31.27l-.41,2.61a7.9,7.9,0,0,0-1.64-.17,2.66,2.66,0,0,0-2.2.9,4.08,4.08,0,0,0-.72,2.6V114h3.86v2.54h-3.86V129.7l2.78.49v2.19h-8.94v-2.19l2.78-.49V116.56Z"/><path class="cls-1" d="M269,116.19l-2.12.37,2.41,9.14.39,2.22h.1l.48-2.22L273.93,114h2.7l3.71,11.66.53,2.47h.1l.5-2.47,2.27-9.14-2.15-.37V114h7v2.15l-1.61.24-4.66,15.95h-2.72l-3.59-11.17-.77-3.08-.1,0-.72,3.07-3.52,11.17h-2.72l-4.66-15.95-1.62-.24V114h7Z"/><path class="cls-1" d="M307.31,132.38q-.15-.73-.24-1.32t-.12-1.17a8.09,8.09,0,0,1-2.43,2,7.13,7.13,0,0,1-7.51-.57,5,5,0,0,1-1.5-3.87,4.45,4.45,0,0,1,2.13-4,10.58,10.58,0,0,1,5.83-1.39h3.47V120a3.2,3.2,0,0,0-1-2.51,4.11,4.11,0,0,0-2.85-.92,7.17,7.17,0,0,0-2.23.32,4.21,4.21,0,0,0-1.56.87l-.36,1.9h-2.6v-3.5a10.07,10.07,0,0,1,3.06-1.57,12.39,12.39,0,0,1,3.9-.59,7.88,7.88,0,0,1,5.09,1.56,5.41,5.41,0,0,1,1.95,4.48v8.67q0,.35,0,.68t0,.67l1.37.18v2.1Zm-5.42-2.4a6.1,6.1,0,0,0,3.06-.78,4.93,4.93,0,0,0,2-1.88v-3h-3.59a5.21,5.21,0,0,0-3.27.93,2.78,2.78,0,0,0-1.2,2.26,2.21,2.21,0,0,0,.75,1.81A3.5,3.5,0,0,0,301.89,130Z"/><path class="cls-1" d="M512.45,109.72v4.34H516v2.43h-3.5v10.91a2.4,2.4,0,0,0,.54,1.78,2,2,0,0,0,1.43.52,7.6,7.6,0,0,0,1-.07q.55-.07.93-.16l.46,2.24a4.39,4.39,0,0,1-1.4.49,9.09,9.09,0,0,1-1.85.19,4.43,4.43,0,0,1-3.26-1.2,5.14,5.14,0,0,1-1.21-3.78V116.48h-2.92v-2.43h2.92v-4.34Z"/><polygon class="cls-1" points="523.68 130.24 526.47 129.77 526.47 116.67 523.68 116.19 523.68 114.04 529.83 114.04 529.83 129.77 532.62 130.24 532.62 132.38 523.68 132.38 523.68 130.24"/><rect class="cls-1" x="524.84" y="104.87" width="3.75" height="3.83"/><polygon class="cls-1" points="399 130.24 401.78 129.77 401.78 116.67 399 116.19 399 114.04 405.15 114.04 405.15 129.77 407.93 130.24 407.93 132.38 399 132.38 399 130.24"/><rect class="cls-1" x="400.16" y="104.87" width="3.75" height="3.83"/><path class="cls-1" d="M546.63,116.19l-2.22.34L548.22,127l.31,1.32h.1L549,127l3.69-10.44-2.24-.34V114h7.14v2.15l-1.52.25-6.2,15.93h-2.55L541,116.45l-1.52-.25V114h7.14Z"/><path class="cls-1" d="M564.43,123a9.45,9.45,0,0,1,2.22-6.46,8.47,8.47,0,0,1,12.09,0A9.42,9.42,0,0,1,581,123v.36a9.41,9.41,0,0,1-2.22,6.47,8.52,8.52,0,0,1-12.1,0,9.41,9.41,0,0,1-2.22-6.46Zm3.37.36A8.1,8.1,0,0,0,569,128a4.58,4.58,0,0,0,7.32,0,8.06,8.06,0,0,0,1.25-4.64V123a8.08,8.08,0,0,0-1.25-4.62,4.15,4.15,0,0,0-3.67-1.85,4.11,4.11,0,0,0-3.66,1.85,8.16,8.16,0,0,0-1.23,4.62Z"/><path class="cls-1" d="M318.59,116.49v-2.11h5.79l.32,2.61a6.34,6.34,0,0,1,1.94-2.16,4.59,4.59,0,0,1,2.64-.78,5.89,5.89,0,0,1,.81.06,4.59,4.59,0,0,1,.64.12l-.44,3-1.91-.1a3.72,3.72,0,0,0-3.64,2.31v10.33l2.78.47v2.1h-8.94v-2.1l2.78-.47V117Z"/><path class="cls-1" d="M435.88,116.49v-2.11h5.79L442,117a6.34,6.34,0,0,1,1.94-2.16,4.59,4.59,0,0,1,2.64-.78,5.89,5.89,0,0,1,.81.06,4.59,4.59,0,0,1,.64.12l-.44,3-1.91-.1a3.72,3.72,0,0,0-3.64,2.31v10.33l2.78.47v2.1h-8.94v-2.1l2.78-.47V117Z"/><path class="cls-1" d="M346,132.38a8,8,0,0,1-6.14-2.46,9,9,0,0,1-2.28-6.38v-.72a8.82,8.82,0,0,1,2.35-6.28,7.37,7.37,0,0,1,5.56-2.51,7.17,7.17,0,0,1,5.65,2.16,8.32,8.32,0,0,1,1.92,5.75v2h-12l-.05.08a6.77,6.77,0,0,0,1.35,4.19,4.38,4.38,0,0,0,3.64,1.64,8.83,8.83,0,0,0,3-.47,7,7,0,0,0,2.23-1.28l1.32,2.09a8.13,8.13,0,0,1-2.62,1.54A10.92,10.92,0,0,1,346,132.38Zm-.51-15.81a3.71,3.71,0,0,0-2.89,1.36,6.31,6.31,0,0,0-1.47,3.42l0,.08h8.53V121a4.79,4.79,0,0,0-1.06-3.17A3.86,3.86,0,0,0,345.53,116.57Z"/><path class="cls-1" d="M250.71,109.72v4.34h3.5v2.43h-3.5v10.91a2.4,2.4,0,0,0,.54,1.78,2,2,0,0,0,1.43.52,7.6,7.6,0,0,0,1-.07q.55-.07.93-.16l.46,2.24a4.39,4.39,0,0,1-1.4.49,9.09,9.09,0,0,1-1.85.19,4.43,4.43,0,0,1-3.26-1.2,5.14,5.14,0,0,1-1.21-3.78V116.48h-2.92v-2.43h2.92v-4.34Z"/><path class="cls-1" d="M202.9,123a9.45,9.45,0,0,1,2.22-6.46,8.47,8.47,0,0,1,12.09,0,9.42,9.42,0,0,1,2.23,6.47v.36a9.41,9.41,0,0,1-2.22,6.47,8.52,8.52,0,0,1-12.1,0,9.41,9.41,0,0,1-2.22-6.46Zm3.37.36a8.1,8.1,0,0,0,1.24,4.64,4.58,4.58,0,0,0,7.32,0,8.06,8.06,0,0,0,1.25-4.64V123a8.08,8.08,0,0,0-1.25-4.62,4.15,4.15,0,0,0-3.67-1.85,4.11,4.11,0,0,0-3.66,1.85,8.16,8.16,0,0,0-1.23,4.62Z"/><path class="cls-1" d="M468.71,129.65a6.18,6.18,0,0,1-2.23,2.27,6.11,6.11,0,0,1-3.14.8,5.86,5.86,0,0,1-4.66-1.91q-1.68-1.91-1.68-6v-8.18l-2.1-.47V114h5.43v10.84q0,2.93.86,4a3.21,3.21,0,0,0,2.69,1.1,5.48,5.48,0,0,0,2.94-.72,4.5,4.5,0,0,0,1.75-2V116.66l-2.45-.47V114h5.79v15.71l2.1.47v2.13h-5.1Z"/><path class="cls-1" d="M386.15,130.19a6,6,0,0,1-2.21,1.91,6.72,6.72,0,0,1-3,.65,6.31,6.31,0,0,1-5.28-2.45,10.2,10.2,0,0,1-1.9-6.44v-.36a12.31,12.31,0,0,1,1.9-7.18,6.11,6.11,0,0,1,5.31-2.73,6.58,6.58,0,0,1,2.89.61,6,6,0,0,1,2.14,1.75v-8.4l-2.78-.48v-2.17h6.14v24.86l2.78.48v2.15h-5.7Zm-9.06-6.33a7.84,7.84,0,0,0,1.14,4.47,4,4,0,0,0,3.53,1.69,4.45,4.45,0,0,0,2.52-.68,5.2,5.2,0,0,0,1.69-1.93v-8.56a5.18,5.18,0,0,0-1.69-1.84,4.44,4.44,0,0,0-2.49-.68,3.83,3.83,0,0,0-3.56,2,10.3,10.3,0,0,0-1.15,5.18Z"/><path class="cls-1" d="M486.88,116.27a6,6,0,0,1,2.21-1.91,6.72,6.72,0,0,1,3-.65,6.31,6.31,0,0,1,5.28,2.45,10.2,10.2,0,0,1,1.9,6.44V123a12.31,12.31,0,0,1-1.9,7.18,6.11,6.11,0,0,1-5.31,2.73,6.58,6.58,0,0,1-2.89-.61,6,6,0,0,1-2.14-1.75v8.4l2.78.48v2.17H480.9v-2.23l2.79-.41V116.69l-2.79-.52V114h5.69Zm9.06,6.33a7.84,7.84,0,0,0-1.14-4.47,4,4,0,0,0-3.53-1.69,4.45,4.45,0,0,0-2.52.68A5.2,5.2,0,0,0,487,119v8.56a5.18,5.18,0,0,0,1.69,1.84,4.44,4.44,0,0,0,2.49.68,3.83,3.83,0,0,0,3.56-2,10.3,10.3,0,0,0,1.15-5.18Z"/></g></g></svg>